# xmcd CD database file
#
# Track frame offsets:
#	150
#	36187
#	75605
#	106600
#	112172
#	136875
#	177255
#	210185
#
# Disc length: 2922 seconds
#
# Revision: 0
# Processed by: cddbd v1.5.1PL0 Copyright (c) Steve Scherf et al.
# Submitted via: CDex 1.51
#
DISCID=5e0b6808
DTITLE=Anders Jormin - Eight Pieces
DYEAR=1988
DGENRE=Jazz
TTITLE0=Fem Snabba
TTITLE1=Ostia Antiqua
TTITLE2=EM
TTITLE3=Till ro
TTITLE4=N.S.
TTITLE5=Alla gator leder bort
TTITLE6=Burkina
TTITLE7=30
EXTD=YEAR: 1988
EXTT0=
EXTT1=
EXTT2=
EXTT3=
EXTT4=
EXTT5=
EXTT6=
EXTT7=
PLAYORDER=
